<?xml version="1.0" encoding="UTF-8"?>
<svg viewBox="0 0 32 24" xmlns="http://www.w3.org/2000/svg" xmlns:xlink="http://www.w3.org/1999/xlink">
<defs>
<path id="j" d="M0 0h32v24H0z"/>
<path id="h" d="M7.646.088v7.03c-.001.414-.22.711-.657.892a2.77 2.77 0 01-1.428.174c-.492-.106-.868-.106-1.128 0a3.303 3.303 0 01-.51.17v.017l-.045-.007-.049.007v-.017a3.26 3.26 0 01-.511-.17c-.26-.106-.636-.106-1.128 0A2.77 2.77 0 01.763 8.01c-.437-.181-.656-.478-.657-.892V.088h7.54z"/>
<path id="f" d="M6.771 6.154c.113-.115.17-.308.17-.579 0-.407.143-.676-.17-.676H5.733c-.299 0-.146.181-.447 0s-.544-.123-.544 0 .304.069.304.32.115.033.115.484.063.376.094.376.031-.082.031-.2-.015-.598.068-.45.125.078.166.245.152.33.076.406-.23.141-.115.141.282-.193.198-.517c-.056-.216-.021-.226.104-.03.295.065.452.053.471-.037.028-.135.069.129.189.129s-.116.271-.215.314c-.066.028-.066.054 0 .076.062.051.113.051.153 0 .061-.076.28-.324.28-.452s.14-.051.14.062-.13.52-.081.455l.049-.065z"/>
</defs>
<g fill="none" fill-rule="evenodd">
<mask id="i" fill="#fff">
<use xlink:href="#j"/>
</mask>
<g mask="url(#i)">
<path d="M8 0h16v24H8z" fill="#ffd018"/>
<path d="M0 0h8v24H0z" fill="#2e42a5"/>
<path d="m24 0h8v24h-8z" fill="#e31d1c"/>
<path d="M18.09 4.72c.245.387-.051.786-.125.921s-.232.634.125.798.879.073 1.15-.164c-.221-.1-.303-.231-.246-.392.086-.242.669-.926 1.737-.417s1.252.975.96 1.352-1.076 1.024-.887 1.461c.091-.16.197-.2.32-.12s.17.19.144.33c.869-.048 1.351.349 1.446 1.192s-.187 1.376-.845 1.6c.208.227.243.415.107.563s-.284.178-.441.088c-.286.271-.358.56-.215.868s.267.508.371.598c.02-.095.115-.143.284-.143.254 0 .725.77.433 1.01-.195.16-.339.225-.433.195.422.35.566.803.433 1.358-.2.833-.734 1.235-1.284 1.468s-1.206.233-2.048.233c-.562 0-1.009.175-1.342.524.285.11.379.292.284.548s-.251.383-.467.383c-.159.228-.314.304-.467.228s-.277-.152-.373-.228c-.132.267-.269.416-.411.448-.01.007-.02.006-.03.005l-.029.002c-.142-.039-.279-.188-.411-.455-.096.075-.221.151-.373.228s-.308.001-.467-.228c-.217 0-.372-.128-.467-.383s0-.438.284-.548c-.333-.35-.78-.524-1.342-.524-.843 0-1.498 0-2.048-.233s-1.085-.632-1.285-1.466c-.133-.556.011-1.008.433-1.358-.093.03-.238-.035-.433-.195-.293-.239.179-1.01.433-1.01.169 0 .264.048.284.143.104-.091.228-.29.371-.598s.072-.598-.215-.868c-.157.09-.304.061-.441-.088s-.101-.336.107-.563c-.659-.224-.94-.758-.845-1.6s.577-1.24 1.446-1.192c-.026-.14.022-.25.144-.33s.229-.04.32.12c.189-.437-.594-1.084-.887-1.461s-.109-.843.96-1.352 1.652.175 1.737.417c.057.162-.025.292-.246.392.27.237.793.328 1.15.164s.198-.663.125-.798-.37-.537-.125-.923.668-.387 1.006-.167c.226.146.507.253.843.319l-.03-.008.166-.037a2.22 2.22 0 00.648-.274c.338-.22.762-.22 1.006.167z" fill="#bf9937"/>
<path d="M12.11 15.998l.105-.254c1.208.518 2.582.777 4.124.777s2.878-.259 4.013-.776l.111.252c-1.171.534-2.546.8-4.124.8s-2.987-.266-4.229-.798z" fill="#805440" fill-rule="nonzero"/>
<g transform="translate(12.373 7.144)">
<mask id="g" fill="#fff">
<use xlink:href="#h"/>
</mask>
<use fill="#bf9937" xlink:href="#h"/>
<g mask="url(#g)">
<path d="M0 0h3.656v3.9H0z" fill="#d00f3a"/>
<path d="M4.063 0h3.792v3.9H4.063zm0 4.333h3.656v4.044H4.063zM0 4.333h3.656v4.044H0z" fill="#fedf00"/>
<g fill="#d00f3a">
<use xlink:href="#f"/>
<use y="1.589" xlink:href="#f"/>
</g>
<g fill-rule="nonzero">
<path d="M1.848 3.039zm-.011.114c0 .165-.084.291-.275.484l-.076.077-.068.072c-.163.185-.449.025-.523-.154a4.67 4.67 0 00-.162-.293l-.06-.104-.05-.086-.065-.114c-.007-.012-.044.002-.111.087-.025.032.027.143.192.319l-.094.104c-.23-.224-.341-.369-.341-.47 0-.168.135-.258.387-.258.158 0 .243.111.369.392l.032.072a1.3 1.3 0 00.151.276c.058.073.092.07.152-.006s.113-.19.195-.398c.06-.152.068-.14-.029-.09l-.063.033-.574-1.379L1.92.386v2.769l-.08-.072a.702.702 0 00-.003.071zm.072.001V.386l1.097 1.331-.574 1.379-.063-.033c-.097-.051-.089-.063-.029.09.082.208.136.324.195.398s.094.079.152.006c.049-.061.089-.137.151-.276l.032-.072c.127-.281.211-.392.369-.392.252 0 .387.09.387.258 0 .101-.111.246-.341.47l-.094-.104c.165-.177.217-.287.192-.319-.066-.085-.104-.099-.111-.087l-.065.114-.05.086-.055.095-.168.302c-.073.179-.359.338-.523.154l-.068-.072-.076-.077c-.191-.193-.275-.319-.275-.484l-.003-.071-.08.072z" fill="#fff"/>
<path d="M1.901.687v2.227c-.021.008-.155.025-.169.051a.425.425 0 00-.03.189c0 .109-.067.211-.227.373.042-.078.085-.178.14-.318.092-.234.029-.366-.149-.304L.982 1.743 1.901.687zm.005-.008l.941 1.065-.484 1.162c-.178-.062-.241.069-.149.304l.14.318c-.16-.163-.227-.264-.227-.373a.41.41 0 00-.03-.189c-.014-.026-.172-.051-.192-.059V.678z" fill="#fedf00"/>
</g>
</g>
<path d="M.813 4.333v4.044H.406V4.333h.406zm.813 0v4.044H1.22V4.333h.406zm.813 0v4.044h-.406V4.333h.406zm.813 0v4.044h-.406V4.333h.406zM5.01 0v4.044h-.406V0h.406zm.813 0v4.044h-.406V0h.406zm.813 0v4.044H6.23V0h.406zm.813 0v4.044h-.406V0h.406z" fill="#d00f3a" mask="url(#g)"/>
</g>
</g>
</g>
</svg>
